<svg width="32" height="32" viewBox="0 0 32 32" fill="none" xmlns="http://www.w3.org/2000/svg">
<path d="M16 30.3333C8.09329 30.3333 1.66663 23.9067 1.66663 16C1.66663 8.09334 8.09329 1.66667 16 1.66667C23.9066 1.66667 30.3333 8.09334 30.3333 16C30.3333 23.9067 23.9066 30.3333 16 30.3333ZM16 3.66667C9.19996 3.66667 3.66663 9.20001 3.66663 16C3.66663 22.8 9.19996 28.3333 16 28.3333C22.8 28.3333 28.3333 22.8 28.3333 16C28.3333 9.20001 22.8 3.66667 16 3.66667Z" fill="#5B5A5B"/>
<path d="M11.9999 29H10.6666C10.1199 29 9.66661 28.5467 9.66661 28C9.66661 27.4533 10.0933 27.0133 10.6399 27C8.54661 19.8533 8.54661 12.1467 10.6399 5C10.0933 4.98667 9.66661 4.54667 9.66661 4C9.66661 3.45333 10.1199 3 10.6666 3H11.9999C12.3199 3 12.6266 3.16 12.8133 3.41333C12.9999 3.68 13.0533 4.01333 12.9466 4.32C10.4399 11.8533 10.4399 20.1467 12.9466 27.6933C13.0533 28 12.9999 28.3333 12.8133 28.6C12.6266 28.84 12.3199 29 11.9999 29Z" fill="#5B5A5B"/>
<path d="M20 29C19.8933 29 19.7866 28.9867 19.68 28.9467C19.16 28.7733 18.8666 28.2 19.0533 27.68C21.56 20.1467 21.56 11.8533 19.0533 4.30667C18.88 3.78667 19.16 3.21333 19.68 3.04C20.2133 2.86667 20.7733 3.14667 20.9466 3.66667C23.6 11.6133 23.6 20.36 20.9466 28.2933C20.8133 28.7333 20.4133 29 20 29Z" fill="#5B5A5B"/>
<path d="M16 22.9333C12.28 22.9333 8.57333 22.4133 5 21.36C4.98667 21.8933 4.54667 22.3333 4 22.3333C3.45333 22.3333 3 21.88 3 21.3333V20C3 19.68 3.16 19.3733 3.41333 19.1867C3.68 19 4.01333 18.9467 4.32 19.0533C11.8533 21.56 20.16 21.56 27.6933 19.0533C28 18.9467 28.3333 19 28.6 19.1867C28.8667 19.3733 29.0133 19.68 29.0133 20V21.3333C29.0133 21.88 28.56 22.3333 28.0133 22.3333C27.4667 22.3333 27.0267 21.9067 27.0133 21.36C23.4267 22.4133 19.72 22.9333 16 22.9333Z" fill="#5B5A5B"/>
<path d="M28 13C27.8934 13 27.7867 12.9867 27.68 12.9467C20.1467 10.44 11.84 10.44 4.3067 12.9467C3.77337 13.12 3.21337 12.84 3.04004 12.32C2.88004 11.7867 3.16004 11.2267 3.68004 11.0533C11.6267 8.40001 20.3734 8.40001 28.3067 11.0533C28.8267 11.2267 29.12 11.8 28.9334 12.32C28.8134 12.7333 28.4134 13 28 13Z" fill="#5B5A5B"/>
</svg>
