<svg width="176" height="88" viewBox="0 0 176 88" fill="none" xmlns="http://www.w3.org/2000/svg">
<path d="M18.4384 35.582C18.4383 34.2075 17.9935 32.8698 17.1703 31.769C16.3471 30.6682 15.1898 29.8633 13.8713 29.4746C12.5529 29.0859 11.144 29.1343 9.85531 29.6125C8.56661 30.0907 7.46726 30.9731 6.72154 32.1279C5.97583 33.2826 5.62378 34.6476 5.71802 36.0189C5.81226 37.3903 6.34771 38.6943 7.24438 39.7361C8.14104 40.778 9.35076 41.5017 10.6928 41.7992C12.0348 42.0966 13.437 41.9519 14.6899 41.3865C15.149 41.1781 15.5348 40.9781 17.0612 41.4935C17.2415 41.5526 17.4612 41.6146 17.7062 41.6906C17.7906 41.7172 17.8801 41.7235 17.9674 41.709C18.0547 41.6945 18.1373 41.6596 18.2086 41.6072C18.2799 41.5549 18.3379 41.4864 18.3778 41.4074C18.4178 41.3285 18.4385 41.2412 18.4384 41.1527V35.582Z" fill="#00B87C"/>
<path d="M22.3475 52.418C22.3475 53.7925 22.7924 55.1302 23.6156 56.231C24.4388 57.3318 25.5961 58.1367 26.9146 58.5254C28.233 58.9141 29.6419 58.8657 30.9306 58.3875C32.2193 57.9093 33.3186 57.0269 34.0643 55.8721C34.8101 54.7174 35.1621 53.3524 35.0679 51.9811C34.9736 50.6097 34.4382 49.3057 33.5415 48.2639C32.6449 47.222 31.4351 46.4983 30.0931 46.2008C28.7511 45.9034 27.3489 46.0482 26.096 46.6135C25.6341 46.822 25.2511 47.0219 23.7218 46.5065C23.5444 46.4474 23.3247 46.3854 23.0797 46.3094C22.9953 46.2828 22.9058 46.2765 22.8185 46.291C22.7312 46.3055 22.6486 46.3404 22.5773 46.3928C22.506 46.4451 22.448 46.5136 22.4081 46.5926C22.3681 46.6715 22.3474 46.7588 22.3475 46.8473V52.418Z" fill="#DC1AA3"/>
<path d="M28.9067 41.9497C32.4234 41.9497 35.2744 39.0988 35.2744 35.582C35.2744 32.0653 32.4234 29.2143 28.9067 29.2143C25.3899 29.2143 22.539 32.0653 22.539 35.582C22.539 39.0988 25.3899 41.9497 28.9067 41.9497Z" fill="#1A61DB"/>
<path d="M12.0707 58.7857C15.5875 58.7857 18.4384 55.9347 18.4384 52.418C18.4384 48.9012 15.5875 46.0503 12.0707 46.0503C8.55395 46.0503 5.70303 48.9012 5.70303 52.418C5.70303 55.9347 8.55395 58.7857 12.0707 58.7857Z" fill="#FEA162"/>
<path d="M66.9973 33.7176V35.1511C66.9995 35.585 66.8677 36.0089 66.62 36.365L55.8898 51.5196H66.7467V54.6175H50.8458V53.0967C50.843 52.9042 50.8774 52.7129 50.9472 52.5334C51.0119 52.3569 51.099 52.1894 51.2063 52.0349L61.959 36.8128H51.5386V33.7148L66.9973 33.7176Z" fill="#242424"/>
<path d="M72.9679 39.7924V49.2214C72.9679 50.1245 73.1782 50.8258 73.5988 51.3252C74.0156 51.8209 74.6464 52.0687 75.4857 52.0687C76.0884 52.0714 76.6831 51.9305 77.2205 51.6576C77.7867 51.3641 78.3037 50.984 78.7526 50.531V39.7924H82.3237V54.6288H80.1411C79.9371 54.643 79.7346 54.5858 79.5681 54.4671C79.4017 54.3485 79.2816 54.1756 79.2286 53.9782L78.9836 52.7925C78.6832 53.0937 78.3643 53.3759 78.0288 53.6374C77.7046 53.8922 77.3533 54.1104 76.9812 54.288C76.5978 54.4714 76.1955 54.6121 75.7814 54.7076C75.3279 54.8117 74.8639 54.8627 74.3986 54.8597C73.6625 54.8734 72.9315 54.7333 72.2526 54.4485C71.6507 54.1872 71.1161 53.7924 70.6895 53.2938C70.2514 52.7696 69.9238 52.1623 69.7263 51.5083C69.5027 50.7708 69.3935 50.0033 69.4025 49.2327V39.7924H72.9679Z" fill="#242424"/>
<path d="M86.1426 54.6288V39.7924H88.238C88.5095 39.765 88.7817 39.8371 89.004 39.9952C89.1723 40.1884 89.2714 40.4322 89.2856 40.688L89.5025 42.482C89.9691 41.6392 90.6036 40.9011 91.3669 40.3134C92.0622 39.788 92.9119 39.5078 93.7833 39.5164C94.4287 39.4913 95.0658 39.6686 95.6055 40.0234L95.1408 42.6989C95.1278 42.8409 95.0613 42.9728 94.9549 43.0678C94.8395 43.145 94.7021 43.1826 94.5634 43.1748C94.3619 43.1656 94.1623 43.1316 93.9692 43.0734C93.6425 42.9975 93.3075 42.9634 92.9722 42.972C92.2841 42.9544 91.6105 43.1719 91.0627 43.5888C90.4765 44.0717 90.0157 44.6891 89.7194 45.3884V54.6288H86.1426Z" fill="#242424"/>
<path d="M102.294 35.4694C102.295 35.7688 102.231 36.0648 102.106 36.3368C101.983 36.6004 101.814 36.8398 101.607 37.0437C101.396 37.2473 101.148 37.4097 100.878 37.5225C100.594 37.6444 100.288 37.7067 99.9792 37.7055C99.6786 37.7066 99.3811 37.6442 99.1061 37.5225C98.8379 37.4085 98.5941 37.2441 98.388 37.0381C98.1853 36.8335 98.0212 36.5941 97.9036 36.3312C97.7838 36.0577 97.7224 35.7623 97.7233 35.4638C97.7224 35.1552 97.7837 34.8497 97.9036 34.5653C98.0207 34.303 98.1849 34.0644 98.388 33.8613C98.5941 33.6553 98.8379 33.4908 99.1061 33.3769C99.3811 33.2551 99.6786 33.1927 99.9792 33.1938C100.288 33.1926 100.594 33.2549 100.878 33.3769C101.149 33.4914 101.396 33.6557 101.607 33.8613C101.816 34.0688 101.985 34.3132 102.106 34.5822C102.229 34.8617 102.293 35.1638 102.294 35.4694ZM101.759 39.7924V54.6288H98.188V39.7924H101.759Z" fill="#242424"/>
<path d="M125.951 49.6974C126.055 49.697 126.157 49.7187 126.252 49.7609C126.347 49.8032 126.431 49.865 126.5 49.9424L128.033 51.604C127.196 52.6463 126.122 53.4738 124.901 54.0176C123.491 54.6136 121.97 54.9016 120.44 54.8625C119.005 54.8851 117.581 54.6149 116.255 54.0683C115.052 53.5633 113.97 52.8088 113.081 51.8547C112.184 50.8785 111.497 49.7281 111.064 48.4751C110.585 47.0945 110.348 45.6415 110.363 44.1802C110.345 42.7045 110.61 41.2389 111.143 39.8628C111.633 38.5939 112.383 37.4416 113.346 36.4802C114.308 35.5188 115.461 34.7696 116.731 34.2809C118.124 33.7396 119.607 33.47 121.102 33.4867C122.496 33.4562 123.881 33.7102 125.174 34.233C126.285 34.6951 127.298 35.3641 128.159 36.2044L126.858 38.0097C126.782 38.1265 126.687 38.2294 126.576 38.3139C126.428 38.4079 126.254 38.4532 126.078 38.4434C125.828 38.435 125.589 38.3438 125.396 38.1843C125.115 37.9778 124.821 37.7897 124.515 37.621C124.084 37.3884 123.631 37.1997 123.163 37.0578C121.58 36.6399 119.906 36.7285 118.375 37.3112C117.571 37.6425 116.846 38.1429 116.252 38.7785C115.636 39.451 115.164 40.2415 114.863 41.102C114.511 42.0877 114.334 43.1278 114.342 44.1746C114.325 45.2414 114.493 46.3032 114.841 47.312C115.136 48.1639 115.595 48.9495 116.193 49.6242C116.751 50.244 117.437 50.735 118.204 51.0633C118.989 51.3992 119.836 51.5689 120.69 51.5618C121.171 51.5647 121.652 51.5365 122.13 51.4773C122.533 51.4216 122.93 51.3273 123.315 51.1957C123.673 51.0717 124.017 50.9093 124.34 50.7113C124.683 50.4987 125.006 50.2545 125.304 49.9818C125.394 49.8986 125.496 49.8275 125.605 49.7706C125.713 49.7195 125.832 49.6944 125.951 49.6974Z" fill="#242424"/>
<path d="M130.764 54.6288V33.1403H134.338V41.3977C134.902 40.8561 135.545 40.404 136.245 40.0572C137.011 39.7064 137.847 39.534 138.689 39.553C139.428 39.5399 140.162 39.6799 140.844 39.9642C141.449 40.2247 141.985 40.6207 142.413 41.1217C142.846 41.6444 143.171 42.2486 143.367 42.8988C143.591 43.6374 143.7 44.4057 143.691 45.1772V54.6203H140.12V45.1857C140.12 44.2788 139.911 43.5776 139.492 43.0819C139.073 42.5862 138.444 42.3384 137.605 42.3384C137.002 42.3345 136.406 42.4776 135.87 42.7552C135.305 43.0565 134.788 43.4421 134.338 43.8986V54.6288H130.764Z" fill="#242424"/>
<path d="M158.84 54.6288H157.235C156.962 54.6421 156.689 54.59 156.441 54.4767C156.329 54.4085 156.232 54.3185 156.156 54.212C156.08 54.1055 156.027 53.9848 155.999 53.8571L155.68 52.801C155.328 53.1181 154.959 53.4152 154.573 53.6909C154.22 53.941 153.842 54.1561 153.447 54.3331C153.054 54.5097 152.642 54.641 152.219 54.7245C151.742 54.8154 151.257 54.8588 150.771 54.8541C150.184 54.8597 149.598 54.7742 149.037 54.6006C148.536 54.4515 148.072 54.1981 147.676 53.8571C147.288 53.5094 146.984 53.0779 146.786 52.5954C146.564 52.0376 146.456 51.441 146.468 50.8408C146.473 50.2586 146.625 49.687 146.91 49.1792C147.265 48.5693 147.77 48.0604 148.378 47.7006C149.224 47.1927 150.146 46.8228 151.109 46.6051C152.499 46.2871 153.923 46.1405 155.348 46.1686V45.2955C155.348 44.2929 155.138 43.5522 154.717 43.0734C154.485 42.825 154.201 42.6314 153.885 42.5066C153.568 42.3819 153.228 42.3292 152.889 42.3525C152.399 42.3399 151.91 42.4074 151.442 42.5524C151.093 42.6715 150.758 42.8243 150.439 43.0087C150.157 43.1776 149.89 43.3297 149.651 43.4649C149.407 43.6005 149.132 43.6704 148.854 43.6677C148.632 43.674 148.414 43.6077 148.234 43.479C148.062 43.3578 147.918 43.2001 147.814 43.0171L147.164 41.8737C148.841 40.3233 151.054 39.4834 153.337 39.5305C154.131 39.5171 154.92 39.6626 155.658 39.9586C156.313 40.2249 156.902 40.6293 157.387 41.1443C157.868 41.6671 158.235 42.2849 158.463 42.958C158.718 43.6981 158.845 44.4761 158.84 45.2589V54.6288ZM151.901 52.4011C152.24 52.4033 152.579 52.3702 152.912 52.3025C153.209 52.2363 153.497 52.1361 153.771 52.004C154.051 51.8652 154.316 51.7002 154.565 51.5111C154.839 51.2996 155.098 51.0691 155.339 50.8211V48.3371C154.465 48.3248 153.591 48.3907 152.729 48.5343C152.146 48.6289 151.578 48.7983 151.039 49.0384C150.678 49.1886 150.365 49.4351 150.135 49.7509C149.96 50.0138 149.867 50.3224 149.867 50.6381C149.867 51.2727 150.055 51.7242 150.431 51.9927C150.86 52.2845 151.374 52.4279 151.892 52.4011H151.901Z" fill="#242424"/>
<path d="M167.219 54.8597C165.938 54.8597 164.951 54.4955 164.256 53.767C163.561 53.0385 163.214 52.0359 163.214 50.7592V42.4679H161.71C161.612 42.4716 161.515 42.4543 161.424 42.4172C161.333 42.3801 161.252 42.3241 161.185 42.2529C161.117 42.1817 161.066 42.097 161.034 42.0044C161.003 41.9118 160.991 41.8134 161 41.716V40.3078L163.389 39.9163L164.14 35.8665C164.169 35.6886 164.265 35.5284 164.408 35.4187C164.561 35.3089 164.746 35.2534 164.935 35.261H166.785V39.922H170.688V42.4567H166.785V50.5085C166.759 50.9042 166.883 51.2952 167.131 51.6041C167.248 51.7327 167.391 51.8342 167.551 51.9014C167.712 51.9685 167.885 51.9997 168.058 51.9927C168.249 51.9988 168.439 51.9721 168.621 51.9138C168.755 51.8681 168.885 51.8125 169.01 51.7477C169.123 51.6885 169.221 51.635 169.308 51.5815C169.385 51.5308 169.475 51.5035 169.568 51.5027C169.66 51.498 169.752 51.5259 169.827 51.5815C169.91 51.6509 169.983 51.7314 170.043 51.8209L171.114 53.5558C170.585 53.9942 169.977 54.3278 169.323 54.5387C168.643 54.7577 167.933 54.8661 167.219 54.8597Z" fill="#242424"/>
</svg>
